<svg width="37" height="37" viewBox="0 0 37 37" fill="none" xmlns="http://www.w3.org/2000/svg">
<path d="M28.9478 19.7843C31.4533 19.792 33.4847 21.8594 33.5 24.4172V28.9506C33.4848 31.5106 31.4556 33.5821 28.9478 33.5977H24.507C22.0015 33.5821 19.9763 31.5083 19.9687 28.9506V24.4172C19.9687 21.8585 22.0005 19.7843 24.507 19.7843H28.9478ZM9.87587 19.7843C10.3421 19.7334 10.796 19.9586 11.0448 20.3644C11.2935 20.7702 11.2935 21.2854 11.0448 21.6912C10.796 22.097 10.3421 22.3223 9.87587 22.2713H8.0522C6.88898 22.2713 5.94385 23.2298 5.9362 24.4172V28.8938C5.96577 30.0717 6.89817 31.0172 8.0522 31.0397H12.5209C13.0808 31.0434 13.6191 30.819 14.0163 30.4162C14.4135 30.0133 14.6369 29.4653 14.6369 28.8938V22.1718L14.6179 22.0046C14.5969 21.5599 14.8102 21.1315 15.1856 20.8886C15.6079 20.6152 16.1505 20.6313 16.5566 20.9292C16.9626 21.2272 17.1505 21.7471 17.0313 22.2429V28.9364C17.0313 31.5029 14.9932 33.5835 12.4791 33.5835H8.0522C5.55982 33.5307 3.55171 31.4807 3.5 28.9364V24.4172C3.5 23.186 3.98004 22.0055 4.83415 21.1362C5.68826 20.267 6.84617 19.7805 8.0522 19.7843H9.87587ZM28.9478 22.2713H24.507C23.346 22.2713 22.4048 23.232 22.4048 24.4172V28.9506C22.4011 29.5209 22.6214 30.0689 23.0164 30.4722C23.4115 30.8754 23.9483 31.1003 24.507 31.0965H28.9478C29.5064 31.1003 30.0433 30.8754 30.4383 30.4722C30.8334 30.0689 31.0536 29.5209 31.0499 28.9506V24.4172C31.0499 23.848 30.8284 23.3022 30.4342 22.8998C30.04 22.4974 29.5053 22.2713 28.9478 22.2713ZM28.9478 3.59766C31.4347 3.65794 33.4346 5.70579 33.4861 8.24474V12.7639C33.5009 13.9927 33.037 15.1771 32.1963 16.0566C31.3557 16.9361 30.2071 17.4387 29.0035 17.4537H27.1659C26.5433 17.3856 26.0712 16.8493 26.0712 16.2102C26.0712 15.571 26.5433 15.0347 27.1659 14.9667H28.9478C29.5114 14.9629 30.0503 14.7298 30.445 14.3189C30.8396 13.9081 31.0573 13.3535 31.0499 12.7781V8.24474C31.0349 7.06599 30.1025 6.11415 28.9478 6.09884H24.507C23.346 6.09884 22.4049 7.05959 22.4049 8.24474V15.0235L22.3904 15.1794C22.2959 15.7912 21.7738 16.2532 21.152 16.2457C20.8282 16.2383 20.5209 16.0989 20.2986 15.8585C20.0762 15.6182 19.9574 15.297 19.9687 14.9667V8.24474C19.965 7.01357 20.4415 5.83152 21.293 4.95961C22.1445 4.08771 23.3009 3.59766 24.507 3.59766H28.9478ZM12.493 3.59766C15.004 3.60546 17.0376 5.68147 17.0452 8.24474V12.7781C17.0452 14.0093 16.5652 15.1899 15.7111 16.0591C14.857 16.9284 13.6991 17.4148 12.493 17.411H8.0522C5.54667 17.4033 3.51527 15.3359 3.5 12.7781V8.24474C3.5152 5.68468 5.54441 3.61317 8.0522 3.59766H12.493ZM12.493 6.09884H8.0522C7.4875 6.08739 6.94203 6.3084 6.53873 6.71209C6.13543 7.11577 5.90824 7.66815 5.90835 8.24474V12.7781C5.89687 13.3621 6.11905 13.9256 6.52362 14.3386C6.92818 14.7516 7.48018 14.9784 8.0522 14.9667H12.493C13.0567 14.9629 13.5956 14.7298 13.9902 14.3189C14.3848 13.9081 14.6026 13.3535 14.5951 12.7781V8.24474C14.5875 7.06282 13.6508 6.10659 12.493 6.09884Z" fill="white"/>
</svg>
