<svg width="30" height="31" viewBox="0 0 30 31" fill="none" xmlns="http://www.w3.org/2000/svg">
<path d="M13.4609 12.3815L14.9234 14.3656C15.0545 14.5664 15.1337 14.7966 15.154 15.0355C15.1742 15.2744 15.1349 15.5146 15.0395 15.7347C14.7377 16.5817 14.2851 17.7999 14.2851 17.7999L16.2234 16.3844C16.4105 16.2634 16.6223 16.1859 16.8433 16.1578C17.0643 16.1297 17.2888 16.1516 17.5002 16.222C18.2198 16.4656 19.7404 17.0225 19.7404 17.0225L18.2431 15.0617C18.1197 14.8981 18.0391 14.7063 18.0087 14.5036C17.9783 14.301 17.999 14.094 18.0689 13.9014C18.3243 13.1472 18.8815 11.6621 18.8815 11.6621L17.0591 13.0196C16.8718 13.172 16.6472 13.2717 16.4085 13.3084C16.1698 13.3451 15.9256 13.3175 15.7011 13.2284C14.8306 12.9036 13.4609 12.3815 13.4609 12.3815Z" fill="white"/>
<path d="M18.1387 6.54612L21.5511 7.59031C21.8751 7.71088 22.1644 7.90954 22.3932 8.16861C22.622 8.42767 22.7832 8.73918 22.8627 9.07549L23.7681 12.1154L24.8012 8.8202C24.9117 8.51858 25.0892 8.24595 25.3205 8.02287C25.5517 7.79978 25.8305 7.63207 26.1359 7.53231C27.1806 7.19584 29.4324 6.52289 29.4324 6.52289L25.9503 5.53669C25.6657 5.44818 25.409 5.28717 25.2055 5.06951C25.002 4.85184 24.8587 4.58496 24.7895 4.29516C24.4297 3.2045 23.8029 1 23.8029 1L22.8512 4.15593C22.7621 4.49317 22.5852 4.80078 22.3385 5.04741C22.0917 5.29404 21.7841 5.47086 21.4467 5.55984C20.1931 5.97754 18.1387 6.54612 18.1387 6.54612Z" fill="white"/>
<path d="M14.9233 2.14844C13.77 2.26454 12.6309 2.49382 11.5225 2.83299" stroke="white" stroke-width="3" stroke-miterlimit="10"/>
<path d="M6.03283 5.62891C4.57518 6.81425 3.41363 8.32254 2.64002 10.0343C1.86641 11.7461 1.50202 13.6143 1.57572 15.4912C1.57572 15.4912 1.41322 27.9641 14.9239 28.8459C14.9239 28.8459 23.0489 28.8459 26.6471 21.8843" stroke="white" stroke-width="3" stroke-miterlimit="10" stroke-dasharray="5.34 5.34"/>
<path d="M27.7373 18.9359C28.0246 17.795 28.2034 16.6296 28.2713 15.4551" stroke="white" stroke-width="3" stroke-miterlimit="10"/>
</svg>
