<svg width="31" height="24" viewBox="0 0 31 24" fill="none" xmlns="http://www.w3.org/2000/svg">
<path d="M25.8134 22.4627C25.8134 22.8068 25.5354 23.0836 25.1953 23.0836C24.8551 23.0836 24.5771 22.8068 24.5771 22.4627C24.5771 22.1186 24.8551 21.8418 25.1953 21.8418C25.5354 21.8418 25.8134 22.1186 25.8134 22.4627Z" fill="white" stroke="url(#paint0_linear_1_103)"/>
<path d="M7.32605 22.4764C7.32605 22.8205 7.04814 23.0973 6.70795 23.0973C6.36775 23.0973 6.08984 22.8205 6.08984 22.4764C6.08984 22.1323 6.36775 21.8555 6.70795 21.8555C7.04814 21.8555 7.32605 22.1323 7.32605 22.4764Z" fill="white" stroke="url(#paint1_linear_1_103)"/>
<path d="M5.364 18.9541L25.8287 18.8862C26.1112 18.8916 26.3871 18.8004 26.6109 18.6275C26.8347 18.4546 26.993 18.2103 27.0597 17.9351C27.3873 16.9161 29.9058 6.11474 29.9058 6.11474C29.9058 6.11474 29.9058 4.00884 28.2569 5.07312L23.3666 8.22072C22.7236 8.43644 22.0292 8.44311 21.3822 8.2398C20.7353 8.03648 20.1689 7.63357 19.7638 7.0885L16.4886 2.32184C16.3842 2.17462 16.2462 2.05458 16.086 1.97175C15.9259 1.88892 15.7483 1.8457 15.5681 1.8457C15.3879 1.8457 15.2104 1.88892 15.0502 1.97175C14.8901 2.05458 14.7521 2.17462 14.6477 2.32184L11.7 6.91864C11.7 6.91864 9.84771 9.48878 7.48727 8.05086C5.12683 6.61294 2.72125 5.31091 2.72125 5.31091C2.72125 5.31091 0.699625 4.48436 1.16268 6.19401C1.62573 7.90366 4.30236 17.9917 4.30236 17.9917C4.34119 18.2504 4.46818 18.4876 4.66171 18.6631C4.85525 18.8385 5.10339 18.9414 5.364 18.9541Z" stroke="url(#paint2_linear_1_103)" stroke-width="2" stroke-miterlimit="10"/>
<path d="M6.66309 22.4746H25.1739" stroke="url(#paint3_linear_1_103)" stroke-width="2" stroke-miterlimit="10"/>
<path d="M15.6136 14.4994C15.26 14.4994 14.9153 14.6024 14.6208 14.7943C14.651 14.6261 14.6789 14.4592 14.7025 14.2931L14.7053 14.2739L14.7065 14.2546C14.7227 14.0014 14.6398 13.7515 14.4749 13.5583L14.4572 13.5376L14.4374 13.5189C14.3136 13.4023 14.1845 13.2856 14.0525 13.1686C14.181 13.1526 14.3084 13.1381 14.4376 13.1258C14.6393 13.1209 14.8359 13.0594 15.0047 12.9478C15.1762 12.8344 15.3114 12.6744 15.3947 12.487C15.4664 12.3437 15.5407 12.2037 15.6186 12.0617C15.6965 12.2026 15.7711 12.3418 15.8426 12.4846C15.9247 12.6739 16.0601 12.8357 16.2326 12.9497L16.5084 12.5327L16.2326 12.9497C16.41 13.067 16.6183 13.1284 16.8307 13.1261C16.955 13.1262 17.0827 13.1362 17.219 13.1528C17.1173 13.2418 17.0161 13.3284 16.9126 13.4136C16.7514 13.5258 16.6291 13.6859 16.5632 13.8716C16.4964 14.0601 16.4913 14.2647 16.5483 14.4559C16.5756 14.5726 16.6002 14.688 16.6237 14.8056C16.3254 14.6065 15.9741 14.4994 15.6136 14.4994Z" fill="white" stroke="url(#paint4_linear_1_103)"/>
<path d="M8.3331 14.7469C8.29321 14.6269 8.23099 14.516 8.15019 14.4198C8.28688 14.3938 8.41758 14.3405 8.53428 14.2625C8.67581 14.168 8.79164 14.0405 8.87218 13.8916C8.94852 14.0424 9.06226 14.172 9.20348 14.2675C9.31215 14.341 9.43364 14.3919 9.56078 14.418C9.48185 14.4998 9.42 14.5975 9.37995 14.7056C9.32881 14.8436 9.31567 14.9918 9.34048 15.1351C9.19412 15.0743 9.03644 15.0425 8.87623 15.0425C8.70448 15.0425 8.53557 15.079 8.3804 15.1487C8.38051 15.1473 8.38063 15.1459 8.38074 15.1445C8.39184 15.0102 8.37567 14.8749 8.3331 14.7469Z" fill="white" stroke="url(#paint5_linear_1_103)"/>
<path d="M22.2416 14.7631C22.0773 14.7631 21.9155 14.7934 21.7639 14.8516L21.7643 14.8435C21.7748 14.5863 21.6911 14.334 21.5285 14.1342C21.6682 14.1124 21.8021 14.06 21.9201 13.98L21.6397 13.5661L21.9201 13.98C22.0601 13.8852 22.1722 13.7554 22.2459 13.6043C22.3206 13.7495 22.4301 13.8748 22.5654 13.9685C22.6789 14.047 22.8067 14.1007 22.9407 14.127C22.8518 14.216 22.7841 14.3251 22.7438 14.4463C22.7002 14.5772 22.6908 14.7161 22.7151 14.85C22.5647 14.7929 22.4044 14.7631 22.2416 14.7631Z" fill="white" stroke="url(#paint6_linear_1_103)"/>
<defs>
<linearGradient id="paint0_linear_1_103" x1="24.0771" y1="22.4627" x2="26.3134" y2="22.4627" gradientUnits="userSpaceOnUse">
<stop stop-color="#61A6F2"/>
<stop offset="0.327143" stop-color="#C9649A"/>
<stop offset="0.686748" stop-color="#FF5A5E"/>
<stop offset="1" stop-color="#F28E4C"/>
</linearGradient>
<linearGradient id="paint1_linear_1_103" x1="5.58984" y1="22.4764" x2="7.82605" y2="22.4764" gradientUnits="userSpaceOnUse">
<stop stop-color="#61A6F2"/>
<stop offset="0.327143" stop-color="#C9649A"/>
<stop offset="0.686748" stop-color="#FF5A5E"/>
<stop offset="1" stop-color="#F28E4C"/>
</linearGradient>
<linearGradient id="paint2_linear_1_103" x1="1.09375" y1="10.3999" x2="29.9058" y2="10.3999" gradientUnits="userSpaceOnUse">
<stop stop-color="#61A6F2"/>
<stop offset="0.327143" stop-color="#C9649A"/>
<stop offset="0.686748" stop-color="#FF5A5E"/>
<stop offset="1" stop-color="#F28E4C"/>
</linearGradient>
<linearGradient id="paint3_linear_1_103" x1="6.66309" y1="22.9746" x2="25.1739" y2="22.9746" gradientUnits="userSpaceOnUse">
<stop stop-color="#61A6F2"/>
<stop offset="0.327143" stop-color="#C9649A"/>
<stop offset="0.686748" stop-color="#FF5A5E"/>
<stop offset="1" stop-color="#F28E4C"/>
</linearGradient>
<linearGradient id="paint4_linear_1_103" x1="12.8975" y1="13.3734" x2="18.3412" y2="13.3734" gradientUnits="userSpaceOnUse">
<stop stop-color="#61A6F2"/>
<stop offset="0.327143" stop-color="#C9649A"/>
<stop offset="0.686748" stop-color="#FF5A5E"/>
<stop offset="1" stop-color="#F28E4C"/>
</linearGradient>
<linearGradient id="paint5_linear_1_103" x1="7.0127" y1="14.4363" x2="10.7284" y2="14.4363" gradientUnits="userSpaceOnUse">
<stop stop-color="#61A6F2"/>
<stop offset="0.327143" stop-color="#C9649A"/>
<stop offset="0.686748" stop-color="#FF5A5E"/>
<stop offset="1" stop-color="#F28E4C"/>
</linearGradient>
<linearGradient id="paint6_linear_1_103" x1="20.3838" y1="14.1494" x2="24.0995" y2="14.1494" gradientUnits="userSpaceOnUse">
<stop stop-color="#61A6F2"/>
<stop offset="0.327143" stop-color="#C9649A"/>
<stop offset="0.686748" stop-color="#FF5A5E"/>
<stop offset="1" stop-color="#F28E4C"/>
</linearGradient>
</defs>
</svg>
