<svg width="37" height="37" viewBox="0 0 37 37" fill="none" xmlns="http://www.w3.org/2000/svg">
<path d="M32 3.97266C32 3.67429 31.8815 3.38814 31.6705 3.17716C31.4595 2.96618 31.1734 2.84766 30.875 2.84766C30.5766 2.84766 30.2905 2.96618 30.0795 3.17716C29.8685 3.38814 29.75 3.67429 29.75 3.97266V5.09766H28.625C28.3266 5.09766 28.0405 5.21618 27.8295 5.42716C27.6185 5.63814 27.5 5.92429 27.5 6.22266C27.5 6.52102 27.6185 6.80717 27.8295 7.01815C28.0405 7.22913 28.3266 7.34766 28.625 7.34766H29.75V8.47266C29.75 8.77102 29.8685 9.05717 30.0795 9.26815C30.2905 9.47913 30.5766 9.59766 30.875 9.59766C31.1734 9.59766 31.4595 9.47913 31.6705 9.26815C31.8815 9.05717 32 8.77102 32 8.47266V7.34766H33.125C33.4234 7.34766 33.7095 7.22913 33.9205 7.01815C34.1315 6.80717 34.25 6.52102 34.25 6.22266C34.25 5.92429 34.1315 5.63814 33.9205 5.42716C33.7095 5.21618 33.4234 5.09766 33.125 5.09766H32V3.97266ZM10.427 4.93116C10.6475 3.86691 11.579 2.84766 12.875 2.84766C14.171 2.84766 15.1025 3.86691 15.3253 4.93116C15.6033 6.30996 16.2791 7.57712 17.2693 8.57616C18.268 9.5671 19.5352 10.2437 20.9143 10.5224C21.9785 10.7429 22.9978 11.6744 22.9978 12.9749C22.9978 14.2709 21.9785 15.2024 20.9143 15.4229C19.5352 15.7016 18.268 16.3782 17.2693 17.3692C16.2791 18.3682 15.6033 19.6354 15.3253 21.0142C15.1048 22.0762 14.1733 23.0977 12.8728 23.0977C11.5768 23.0977 10.6453 22.0784 10.4248 21.0142C10.1465 19.6343 9.46983 18.3663 8.4785 17.3669C7.47947 16.3768 6.21231 15.701 4.8335 15.4229C3.7715 15.2024 2.75225 14.2732 2.75 12.9772C2.74775 11.6767 3.76925 10.7429 4.8335 10.5224C6.21231 10.2444 7.47947 9.56853 8.4785 8.57841C9.46945 7.57966 10.1461 6.31247 10.4248 4.93341M25.25 12.9727C25.25 12.5767 25.205 12.2017 25.115 11.8477H26.375C27.8668 11.8477 29.2976 12.4403 30.3525 13.4952C31.4074 14.5501 32 15.9808 32 17.4727V26.4727C32 27.9645 31.4074 29.3952 30.3525 30.4501C29.2976 31.505 27.8668 32.0977 26.375 32.0977H17.375C15.8832 32.0977 14.4524 31.505 13.3975 30.4501C12.3426 29.3952 11.75 27.9645 11.75 26.4727V25.2127C12.4891 25.3938 13.2609 25.3938 14 25.2127V26.4727C14 27.3678 14.3556 28.2262 14.9885 28.8591C15.6215 29.4921 16.4799 29.8477 17.375 29.8477H26.375C27.2701 29.8477 28.1286 29.4921 28.7615 28.8591C29.3944 28.2262 29.75 27.3678 29.75 26.4727V17.4727C29.75 16.5776 29.3944 15.7191 28.7615 15.0862C28.1286 14.4532 27.2701 14.0977 26.375 14.0977H25.115C25.205 13.7437 25.25 13.3687 25.25 12.9727ZM18.5 19.7227C18.5 19.4243 18.6185 19.1381 18.8295 18.9272C19.0405 18.7162 19.3266 18.5977 19.625 18.5977H25.25C25.5484 18.5977 25.8345 18.7162 26.0455 18.9272C26.2565 19.1381 26.375 19.4243 26.375 19.7227C26.375 20.021 26.2565 20.3072 26.0455 20.5182C25.8345 20.7291 25.5484 20.8477 25.25 20.8477H19.625C19.3266 20.8477 19.0405 20.7291 18.8295 20.5182C18.6185 20.3072 18.5 20.021 18.5 19.7227ZM19.625 23.0977C19.3266 23.0977 19.0405 23.2162 18.8295 23.4272C18.6185 23.6381 18.5 23.9243 18.5 24.2227C18.5 24.521 18.6185 24.8072 18.8295 25.0182C19.0405 25.2291 19.3266 25.3477 19.625 25.3477H23C23.2984 25.3477 23.5845 25.2291 23.7955 25.0182C24.0065 24.8072 24.125 24.521 24.125 24.2227C24.125 23.9243 24.0065 23.6381 23.7955 23.4272C23.5845 23.2162 23.2984 23.0977 23 23.0977H19.625ZM6.125 27.5977C6.42337 27.5977 6.70952 27.7162 6.9205 27.9272C7.13148 28.1381 7.25 28.4243 7.25 28.7227V29.8477H8.375C8.67337 29.8477 8.95952 29.9662 9.1705 30.1772C9.38148 30.3881 9.5 30.6743 9.5 30.9727C9.5 31.271 9.38148 31.5572 9.1705 31.7682C8.95952 31.9791 8.67337 32.0977 8.375 32.0977H7.25V33.2227C7.25 33.521 7.13148 33.8072 6.9205 34.0182C6.70952 34.2291 6.42337 34.3477 6.125 34.3477C5.82664 34.3477 5.54049 34.2291 5.32951 34.0182C5.11853 33.8072 5 33.521 5 33.2227V32.0977H3.875C3.57664 32.0977 3.29049 31.9791 3.07951 31.7682C2.86853 31.5572 2.75 31.271 2.75 30.9727C2.75 30.6743 2.86853 30.3881 3.07951 30.1772C3.29049 29.9662 3.57664 29.8477 3.875 29.8477H5V28.7227C5 28.4243 5.11853 28.1381 5.32951 27.9272C5.54049 27.7162 5.82664 27.5977 6.125 27.5977Z" fill="white"/>
</svg>
