<svg width="37" height="37" viewBox="0 0 37 37" fill="none" xmlns="http://www.w3.org/2000/svg">
<path d="M8.59961 2.39844C7.40614 2.39844 6.26154 2.87254 5.41763 3.71646C4.57372 4.56037 4.09961 5.70496 4.09961 6.89844V23.0984C4.09961 24.2919 4.57372 25.4365 5.41763 26.2804C6.26154 27.1243 7.40614 27.5984 8.59961 27.5984H14.8996V16.7984H10.3996C10.1609 16.7984 9.932 16.7036 9.76321 16.5348C9.59443 16.3661 9.49961 16.1371 9.49961 15.8984C9.49961 15.6597 9.59443 15.4308 9.76321 15.262C9.932 15.0933 10.1609 14.9984 10.3996 14.9984H15.2056C15.4412 14.3344 15.8044 13.7229 16.2748 13.1984H10.3996C10.1609 13.1984 9.932 13.1036 9.76321 12.9348C9.59443 12.7661 9.49961 12.5371 9.49961 12.2984C9.49961 12.0597 9.59443 11.8308 9.76321 11.662C9.932 11.4933 10.1609 11.3984 10.3996 11.3984H29.2996V6.89844C29.2996 5.70496 28.8255 4.56037 27.9816 3.71646C27.1377 2.87254 25.9931 2.39844 24.7996 2.39844H8.59961ZM9.49961 8.69844C9.49961 8.45974 9.59443 8.23082 9.76321 8.06204C9.932 7.89326 10.1609 7.79844 10.3996 7.79844H22.9996C23.2383 7.79844 23.4672 7.89326 23.636 8.06204C23.8048 8.23082 23.8996 8.45974 23.8996 8.69844C23.8996 8.93713 23.8048 9.16605 23.636 9.33483C23.4672 9.50362 23.2383 9.59844 22.9996 9.59844H10.3996C10.1609 9.59844 9.932 9.50362 9.76321 9.33483C9.59443 9.16605 9.49961 8.93713 9.49961 8.69844ZM32.8996 16.7984C32.8996 15.8437 32.5203 14.928 31.8452 14.2529C31.1701 13.5777 30.2544 13.1984 29.2996 13.1984H20.2996C19.3448 13.1984 18.4292 13.5777 17.754 14.2529C17.0789 14.928 16.6996 15.8437 16.6996 16.7984V31.1984C16.6996 32.1532 17.0789 33.0689 17.754 33.744C18.4292 34.4192 19.3448 34.7984 20.2996 34.7984H31.9996C32.2383 34.7984 32.4672 34.7036 32.636 34.5348C32.8048 34.3661 32.8996 34.1371 32.8996 33.8984C32.8996 33.6597 32.8048 33.4308 32.636 33.262C32.4672 33.0933 32.2383 32.9984 31.9996 32.9984H20.2996C19.8222 32.9984 19.3644 32.8088 19.0268 32.4712C18.6893 32.1337 18.4996 31.6758 18.4996 31.1984V31.193H31.9996C32.2383 31.193 32.4672 31.0982 32.636 30.9294C32.8048 30.7607 32.8996 30.5317 32.8996 30.293V16.7984ZM18.4996 29.393V16.7984C18.4996 16.321 18.6893 15.8632 19.0268 15.5256C19.3644 15.1881 19.8222 14.9984 20.2996 14.9984H29.2996C29.777 14.9984 30.2348 15.1881 30.5724 15.5256C30.91 15.8632 31.0996 16.321 31.0996 16.7984V29.393H18.4996Z" fill="white"/>
</svg>
