<svg width="35" height="28" viewBox="0 0 35 28" fill="none" xmlns="http://www.w3.org/2000/svg">
<g clip-path="url(#clip0_1_219)">
<path d="M9.81689 14.2531C12.7765 14.2531 15.1758 11.8315 15.1758 8.84433C15.1758 5.85714 12.7765 3.43555 9.81689 3.43555C6.85726 3.43555 4.45801 5.85714 4.45801 8.84433C4.45801 11.8315 6.85726 14.2531 9.81689 14.2531Z" stroke="white" stroke-width="3" stroke-miterlimit="10"/>
<path d="M6.089 18.4325C4.59505 19.2275 3.3389 20.4052 2.44895 21.845C1.559 23.2849 1.06716 24.9353 1.02367 26.6276C1.02367 26.6276 0.982693 26.9076 1.9862 26.9281C2.98971 26.9485 17.7489 26.969 17.7489 26.969C17.7489 26.969 18.7592 27.01 18.7592 26.6685C18.7592 26.3271 18.6977 20.6725 13.3935 18.2891C13.3935 18.2891 10.5468 20.0442 6.089 18.4325Z" stroke="white" stroke-width="3" stroke-miterlimit="10"/>
<path d="M25 12C27.7614 12 30 9.76142 30 7C30 4.23858 27.7614 2 25 2C22.2386 2 20 4.23858 20 7C20 9.76142 22.2386 12 25 12Z" stroke="white" stroke-width="3" stroke-miterlimit="10"/>
<path d="M28.6031 15.7559C28.6031 15.7559 25.7632 17.511 21.2986 15.8993C20.4429 16.3462 19.6659 16.9298 18.998 17.6271C20.563 19.6722 21.766 21.9705 22.5547 24.4222H32.9653C32.9653 24.4222 33.9756 24.4632 33.9756 24.1149C33.9756 23.7666 33.9142 18.1188 28.6031 15.7559Z" stroke="white" stroke-width="3" stroke-miterlimit="10"/>
</g>
<defs>
<clipPath id="clip0_1_219">
<rect width="35" height="28" fill="white"/>
</clipPath>
</defs>
</svg>
