<svg width="16" height="13" viewBox="0 0 16 13" fill="none" xmlns="http://www.w3.org/2000/svg">
<g clip-path="url(#clip0_1_4474)">
<path d="M0.832113 3.05164H8.04585M0.613967 3.26337L4.2165 7.936C4.24268 7.97013 4.27636 7.99778 4.31494 8.01681C4.35352 8.03584 4.39596 8.04573 4.43898 8.04573C4.482 8.04573 4.52444 8.03584 4.56302 8.01681C4.6016 7.99778 4.63528 7.97013 4.66146 7.936L8.26399 3.26337C8.29941 3.21725 8.31996 3.16145 8.3229 3.10337C8.32585 3.04529 8.31105 2.9877 8.28047 2.93823L7.05847 0.965728C7.03331 0.924908 6.99813 0.891197 6.95628 0.867797C6.91443 0.844397 6.86729 0.832085 6.81934 0.832031H2.05862C2.01067 0.832085 1.96353 0.844397 1.92168 0.867797C1.87983 0.891197 1.84465 0.924908 1.81949 0.965728L0.597493 2.93823C0.566914 2.9877 0.552112 3.04529 0.555055 3.10337C0.557997 3.16145 0.578545 3.21725 0.613967 3.26337Z" stroke="white" stroke-width="0.5" stroke-linecap="round" stroke-linejoin="round"/>
<path d="M6.93651 1.10948L6.10415 3.05164M6.10415 3.05164L4.43944 0.832031L2.77474 3.05164M6.10415 3.05164L4.43944 7.76831L2.77474 3.05164M1.94238 1.10948L2.77474 3.05164" stroke="white" stroke-width="0.5" stroke-linecap="round" stroke-linejoin="round"/>
</g>
<g clip-path="url(#clip1_1_4474)">
<path d="M9.6847 3.23454L12.7945 9.74352M9.39962 3.12898L6.73653 8.39393C6.71702 8.43226 6.7066 8.47458 6.70606 8.51759C6.70552 8.5606 6.71488 8.60317 6.73343 8.64198C6.75197 8.68079 6.7792 8.71482 6.813 8.74143C6.8468 8.76803 6.88627 8.78651 6.92836 8.79542L12.6975 10.0316C12.7544 10.0437 12.8136 10.0382 12.8673 10.0158C12.921 9.99343 12.9666 9.95525 12.998 9.90633L14.251 7.95337C14.277 7.91307 14.2922 7.8668 14.2953 7.81895C14.2984 7.7711 14.2892 7.72326 14.2686 7.67997L12.2162 3.38435C12.1955 3.34111 12.1641 3.30388 12.1249 3.2762C12.0858 3.24853 12.0402 3.23132 11.9925 3.22622L9.68589 2.97395C9.62808 2.96768 9.56972 2.97915 9.51859 3.00685C9.46746 3.03454 9.42596 3.07714 9.39962 3.12898Z" stroke="white" stroke-width="0.5" stroke-linecap="round" stroke-linejoin="round"/>
<path d="M14.0686 7.90513L11.9574 7.99135M11.9574 7.99135L13.2425 5.53241L10.5221 4.98721M11.9574 7.99135L6.98386 8.52263L10.5221 4.98721M11.9157 3.39891L10.5221 4.98721" stroke="white" stroke-width="0.5" stroke-linecap="round" stroke-linejoin="round"/>
</g>
<defs>
<clipPath id="clip0_1_4474">
<rect width="8.87844" height="8.87844" fill="white"/>
</clipPath>
<clipPath id="clip1_1_4474">
<rect width="8.87844" height="8.87844" fill="white" transform="translate(12.0796 1.16797) rotate(64.4627)"/>
</clipPath>
</defs>
</svg>
