<svg width="30" height="34" viewBox="0 0 30 34" fill="none" xmlns="http://www.w3.org/2000/svg">
<circle cx="24.9827" cy="5.24975" r="3.10664" transform="rotate(5.78681 24.9827 5.24975)" fill="white"/>
<path d="M21.276 7.44985L25.1051 9.13085L18.5272 24.1142C17.9173 25.4846 17.1068 26.5394 16.0955 27.2786C15.0873 28.0109 13.9492 28.4172 12.6812 28.4976C11.4231 28.5741 10.1108 28.3123 8.74424 27.7124C7.49563 27.1643 6.46933 26.4489 5.66534 25.5665C4.87133 24.6801 4.37636 23.6685 4.18043 22.5318C3.9845 21.395 4.17431 20.1711 4.74987 18.8601L8.58935 20.5456C8.34353 21.1244 8.25065 21.6752 8.31072 22.198C8.37772 22.7238 8.58101 23.1937 8.92057 23.6075C9.26014 24.0213 9.71433 24.3531 10.2831 24.6028C10.9005 24.8738 11.4806 24.9754 12.0233 24.9076C12.5691 24.8328 13.0657 24.5875 13.513 24.1716C13.9673 23.7588 14.3623 23.1793 14.6982 22.4332L21.276 7.44985Z" fill="white"/>
<path d="M23.6287 8.7636L27.7994 8.45775L28.9961 24.7776C29.0983 26.2741 28.8754 27.5856 28.3275 28.712C27.7791 29.8309 26.9634 30.7225 25.8803 31.3868C24.8042 32.043 23.5219 32.4257 22.0335 32.5348C20.6735 32.6346 19.4318 32.4826 18.3083 32.0788C17.1919 31.6669 16.2811 31.0045 15.5761 30.0915C14.8711 29.1785 14.4662 28.008 14.3615 26.58L18.5434 26.2733C18.597 26.8999 18.7726 27.4301 19.0703 27.864C19.3755 28.2974 19.775 28.6176 20.2687 28.8244C20.7625 29.0313 21.3191 29.112 21.9386 29.0666C22.6111 29.0173 23.1713 28.8357 23.6192 28.5218C24.0666 28.2003 24.3907 27.7511 24.5914 27.1743C24.7998 26.5969 24.8778 25.9 24.8255 25.0834L23.6287 8.7636Z" fill="white"/>
</svg>
