<svg width="33" height="29" viewBox="0 0 33 29" fill="none" xmlns="http://www.w3.org/2000/svg">
<path d="M23.4014 0.0859375C20.5762 0.0859375 18.0689 1.20109 16.3701 3.11781C14.6714 1.20109 12.164 0.0859375 9.33887 0.0859375C6.87824 0.0889147 4.51925 1.06771 2.77932 2.80764C1.03939 4.54757 0.0605944 6.90656 0.0576172 9.36719C0.0576172 19.54 14.9371 27.6681 15.57 28.0098C15.8159 28.1423 16.0908 28.2116 16.3701 28.2116C16.6494 28.2116 16.9244 28.1423 17.1703 28.0098C17.8031 27.6681 32.6826 19.54 32.6826 9.36719C32.6796 6.90656 31.7008 4.54757 29.9609 2.80764C28.221 1.06771 25.862 0.0889147 23.4014 0.0859375ZM22.6293 20.1053C20.6708 21.7673 18.5772 23.2631 16.3701 24.5772C14.1631 23.2631 12.0694 21.7673 10.1109 20.1053C7.06355 17.4911 3.43262 13.5044 3.43262 9.36719C3.43262 7.80075 4.05488 6.29848 5.16252 5.19084C6.27015 4.0832 7.77243 3.46094 9.33887 3.46094C11.842 3.46094 13.9373 4.78281 14.8078 6.91188C14.9345 7.22225 15.1507 7.48785 15.429 7.67481C15.7072 7.86177 16.0349 7.96162 16.3701 7.96162C16.7054 7.96162 17.033 7.86177 17.3112 7.67481C17.5895 7.48785 17.8058 7.22225 17.9325 6.91188C18.8029 4.78281 20.8982 3.46094 23.4014 3.46094C24.9678 3.46094 26.4701 4.0832 27.5777 5.19084C28.6854 6.29848 29.3076 7.80075 29.3076 9.36719C29.3076 13.5044 25.6767 17.4911 22.6293 20.1053Z" fill="white"/>
</svg>
