<svg width="34" height="28" viewBox="0 0 34 28" fill="none" xmlns="http://www.w3.org/2000/svg">
<g clip-path="url(#clip0_1_249)">
<path d="M23.7383 5.10156H6.50033C3.47337 5.10156 1.01953 7.56596 1.01953 10.606V21.4713C1.01953 24.5113 3.47337 26.9757 6.50033 26.9757H23.7383C26.7653 26.9757 29.2191 24.5113 29.2191 21.4713V10.606C29.2191 7.56596 26.7653 5.10156 23.7383 5.10156Z" stroke="white" stroke-width="3" stroke-miterlimit="10"/>
<path d="M1.16309 21.9431L5.77351 16.0905C5.77351 16.0905 6.87511 14.3968 8.32351 16.1792C9.77191 17.9617 10.8735 19.6553 10.8735 19.6553C10.8735 19.6553 11.8935 21.0212 13.4235 18.7607C14.9535 16.5002 18.7751 11.7265 18.7751 11.7265C18.7751 11.7265 20.2167 9.32263 21.7467 11.549C23.2767 13.7753 29.0567 21.2534 29.0567 21.2534" stroke="white" stroke-width="3" stroke-miterlimit="10"/>
<path d="M11.5123 12.7843C12.2635 12.7843 12.8723 12.1422 12.8723 11.3502C12.8723 10.5581 12.2635 9.91602 11.5123 9.91602C10.7612 9.91602 10.1523 10.5581 10.1523 11.3502C10.1523 12.1422 10.7612 12.7843 11.5123 12.7843Z" fill="white"/>
<path d="M5.35156 3.29791C5.71954 2.60324 6.27073 2.02363 6.94477 1.62252C7.61882 1.22141 8.38973 1.01426 9.17316 1.02375C11.8932 1.02375 28.5872 1.02375 28.5872 1.02375C28.5872 1.02375 32.98 1.26276 32.98 5.66081V18.254C32.98 18.254 32.98 20.5282 31.6948 21.7438" stroke="white" stroke-width="3" stroke-miterlimit="10"/>
<path d="M31.1367 21.0957L31.1843 22.8713C31.5584 22.7682 31.914 22.6069 32.2383 22.3932C32.4213 22.2663 32.5632 22.0882 32.6463 21.881L31.1367 21.0957Z" fill="white"/>
<path d="M6.07891 3.65963L5.23571 2.12305C4.95233 2.40231 4.71168 2.72222 4.52168 3.07233C4.41333 3.28239 4.37068 3.52042 4.39928 3.75525L6.07891 3.65963Z" fill="white"/>
</g>
<defs>
<clipPath id="clip0_1_249">
<rect width="34" height="28" fill="white"/>
</clipPath>
</defs>
</svg>
