<svg width="42" height="40" viewBox="0 0 42 40" fill="none" xmlns="http://www.w3.org/2000/svg">
<g clip-path="url(#clip0_1_213)">
<path d="M5.79199 16.6543L5.84724 33.9714C5.84724 33.9714 5.25787 38.4006 9.90817 38.4006L14.669 38.3323C14.669 38.3323 16.8975 38.3323 16.8422 34.986C16.7869 31.6396 16.7225 26.6445 16.7225 26.6445C16.7225 26.6445 16.6028 24.3616 19.7153 24.3616H22.1923C22.1923 24.3616 25.3601 23.864 25.3048 26.8299V35.2982C25.2378 35.9668 25.3824 36.64 25.7157 37.2122C26.0491 37.7843 26.5524 38.2229 27.1465 38.4592C27.4412 38.586 32.8466 38.5275 32.8466 38.5275C32.8466 38.5275 36.53 38.9079 36.3735 33.7177C36.2169 28.5275 36.0788 16.9665 36.0788 16.9665" stroke="white" stroke-width="3" stroke-miterlimit="10"/>
<path d="M1.36328 21.2193L19.3475 2.15589C19.7688 1.70966 20.3402 1.45898 20.936 1.45898C21.5317 1.45898 22.1031 1.70966 22.5244 2.15589L40.5639 21.2193" stroke="white" stroke-width="3" stroke-miterlimit="10"/>
<path d="M1.38128 22.6729C2.14413 22.6729 2.76255 22.009 2.76255 21.19C2.76255 20.371 2.14413 19.707 1.38128 19.707C0.618418 19.707 0 20.371 0 21.19C0 22.009 0.618418 22.6729 1.38128 22.6729Z" fill="white"/>
<path d="M40.6186 22.7608C41.3814 22.7608 41.9999 22.0968 41.9999 21.2778C41.9999 20.4588 41.3814 19.7949 40.6186 19.7949C39.8557 19.7949 39.2373 20.4588 39.2373 21.2778C39.2373 22.0968 39.8557 22.7608 40.6186 22.7608Z" fill="white"/>
</g>
<defs>
<clipPath id="clip0_1_213">
<rect width="42" height="40" fill="white"/>
</clipPath>
</defs>
</svg>
