<svg width="27" height="27" viewBox="0 0 27 27" fill="none" xmlns="http://www.w3.org/2000/svg">
<path d="M23.3538 19.5146C23.4877 19.6664 23.6321 19.8087 23.7859 19.9403L23.8178 19.9675L23.8421 19.9821C23.8941 20.024 23.9329 20.0801 23.9536 20.1438C23.976 20.2129 23.976 20.2874 23.9535 20.3565C23.931 20.4256 23.8872 20.4857 23.8283 20.5284C23.7695 20.571 23.6986 20.5939 23.626 20.5938H23.625H3.37557C3.30306 20.5937 3.23244 20.5707 3.1738 20.528C3.11516 20.4854 3.0715 20.4253 3.04908 20.3563C3.02665 20.2874 3.02661 20.2131 3.04894 20.1441C3.07128 20.0751 3.11486 20.015 3.17345 19.9722L3.1914 19.9592L3.20812 19.9445L3.21372 19.9396L3.28228 19.8818L3.28839 19.8766L3.29434 19.8713C3.37196 19.8014 3.49525 19.6856 3.64579 19.515C3.94314 19.1804 4.34852 18.6416 4.7562 17.8439C5.57305 16.2469 6.40623 13.6021 6.40623 9.45C6.40623 7.45641 7.1484 5.54033 8.47598 4.12424C9.80489 2.70688 11.6117 1.90625 13.5 1.90625C13.901 1.90625 14.2961 1.94151 14.6857 2.01191L14.7746 1.51987L14.6857 2.01191C14.8438 2.04048 15.3392 2.18746 15.849 2.38265C15.3688 3.20089 15.075 4.11801 14.9921 5.06833C14.8911 6.22703 15.1073 7.39139 15.6178 8.4365C16.1282 9.48161 16.9136 10.368 17.8896 11.0007C18.7394 11.5515 19.7059 11.8919 20.709 11.9966C20.7165 12.0855 20.7246 12.1746 20.7336 12.2626L20.7337 12.2643C21.0063 14.8482 21.6297 16.6443 22.244 17.8432M23.3538 19.5146C23.3537 19.5144 23.3535 19.5143 23.3534 19.5142L23.7285 19.1835L23.3542 19.515C23.354 19.5149 23.3539 19.5147 23.3538 19.5146ZM23.3538 19.5146C23.057 19.1794 22.6517 18.641 22.244 17.8432M22.244 17.8432L22.6886 17.6154L22.2438 17.8428C22.2438 17.843 22.2439 17.8431 22.244 17.8432Z" stroke="white"/>
<path fill-rule="evenodd" clip-rule="evenodd" d="M17.1558 5.625C17.1558 4.50612 17.6003 3.43306 18.3914 2.64189C19.1826 1.85072 20.2557 1.40625 21.3746 1.40625C22.4934 1.40625 23.5665 1.85072 24.3577 2.64189C25.1488 3.43306 25.5933 4.50612 25.5933 5.625C25.5933 6.74388 25.1488 7.81694 24.3577 8.60811C23.5665 9.39928 22.4934 9.84375 21.3746 9.84375C20.2557 9.84375 19.1826 9.39928 18.3914 8.60811C17.6003 7.81694 17.1558 6.74388 17.1558 5.625ZM11.1303 22.8949C11.2262 22.8393 11.3321 22.8032 11.4419 22.7886C11.5518 22.7739 11.6634 22.7811 11.7705 22.8096C11.8776 22.8381 11.978 22.8874 12.066 22.9548C12.154 23.0221 12.2279 23.1061 12.2834 23.202C12.4071 23.415 12.5845 23.5917 12.7979 23.7146C13.0113 23.8375 13.2533 23.9021 13.4996 23.9021C13.7458 23.9021 13.9878 23.8375 14.2012 23.7146C14.4146 23.5917 14.592 23.415 14.7157 23.202C14.7713 23.1061 14.8453 23.0221 14.9333 22.9548C15.0214 22.8875 15.1219 22.8382 15.229 22.8098C15.3362 22.7813 15.4478 22.7742 15.5577 22.7889C15.6676 22.8036 15.7735 22.8398 15.8694 22.8954C15.9652 22.9511 16.0492 23.025 16.1165 23.1131C16.1838 23.2012 16.2331 23.3017 16.2616 23.4088C16.29 23.5159 16.2971 23.6276 16.2824 23.7375C16.2677 23.8473 16.2315 23.9532 16.1759 24.0491C15.904 24.5181 15.5136 24.9074 15.0439 25.178C14.5742 25.4486 14.0416 25.591 13.4996 25.591C12.9575 25.591 12.4249 25.4486 11.9552 25.178C11.4855 24.9074 11.0951 24.5181 10.8232 24.0491C10.7674 23.9532 10.7312 23.8472 10.7165 23.7373C10.7017 23.6273 10.7088 23.5155 10.7374 23.4083C10.7659 23.3011 10.8153 23.2006 10.8827 23.1125C10.9501 23.0244 11.0343 22.9504 11.1303 22.8949Z" fill="white"/>
<circle cx="21.375" cy="5.625" r="4.5" fill="#CC0101"/>
</svg>
