<svg width="34" height="29" viewBox="0 0 34 29" fill="none" xmlns="http://www.w3.org/2000/svg">
<g clip-path="url(#clip0_1_233)">
<path d="M15.1497 12.6259C13.5487 12.6259 11.9563 12.6259 10.3553 12.6259C9.37402 12.6259 8.69404 12.2297 8.71126 11.7063C8.72847 11.1829 9.30515 10.7727 10.295 10.7656C13.5573 10.7656 16.811 10.7656 20.0732 10.7656C20.934 10.7656 21.5279 11.0344 21.6312 11.671C21.7087 12.1944 20.9684 12.6188 20.0388 12.6259C18.412 12.6329 16.7766 12.6259 15.1497 12.6259Z" fill="white"/>
<path d="M15.1497 9.00476H10.3553C9.37402 9.00476 8.69404 8.60159 8.71126 8.08525C8.72847 7.56891 9.30515 7.14453 10.295 7.14453C13.5573 7.14453 16.811 7.14453 20.0732 7.14453C20.934 7.14453 21.5279 7.42038 21.6312 8.0499C21.7345 8.67941 20.9684 9.00476 20.0388 9.01184L15.1497 9.00476Z" fill="white"/>
<path d="M15.1836 16.2538C13.617 16.2538 12.0504 16.2538 10.4924 16.2538C9.32181 16.2538 8.68489 15.9001 8.71072 15.2918C8.73654 14.6835 9.36489 14.3652 10.4322 14.3652H19.9006C20.9249 14.3652 21.6221 14.7755 21.6221 15.3343C21.6221 15.893 20.9765 16.2396 19.9608 16.2467C18.377 16.2609 16.776 16.2538 15.1836 16.2538Z" fill="white"/>
<path d="M15.175 19.8551H10.484C9.26167 19.8551 8.68497 19.5439 8.71079 18.9285C8.73661 18.3132 9.30471 18.009 10.4323 18.002C13.5999 18.002 16.7589 18.002 19.9007 18.002C21.011 18.002 21.6222 18.3556 21.6222 18.9356C21.6222 19.5156 20.9336 19.841 19.9007 19.841L15.175 19.8551Z" fill="white"/>
<path d="M29.0507 6.46406C29.0507 6.46406 29.1541 1.1238 23.1029 1.08136C17.0518 1.03892 7.16164 1.08136 7.16164 1.08136C7.16164 1.08136 1.24821 1.34307 1.29125 5.26161C1.33429 9.18014 1.29125 23.7438 1.29125 23.7438C1.29125 23.7438 1.29126 27.9311 7.16164 27.9311H23.1029C23.1029 27.9311 28.9045 27.6411 28.9819 23.7438" stroke="white" stroke-width="3" stroke-miterlimit="10"/>
<path d="M28.6681 10.2911H30.2413V11.7417C31.9984 11.9529 33.1358 12.9472 33.6534 14.7248L31.4877 15.6136C31.0654 14.3945 30.4116 13.7849 29.5262 13.7849C29.0835 13.7849 28.726 13.9211 28.4535 14.1936C28.1879 14.466 28.0551 14.7963 28.0551 15.1845C28.0551 15.5795 28.1845 15.8826 28.4433 16.0937C28.7021 16.3048 29.2572 16.5671 30.1085 16.8803C31.0416 17.2209 31.7737 17.5444 32.3049 17.8508C32.8361 18.1505 33.2584 18.5694 33.5717 19.1074C33.8918 19.6386 34.0518 20.2618 34.0518 20.9769C34.0518 22.0734 33.7249 22.9894 33.0711 23.725C32.4173 24.4537 31.474 24.8828 30.2413 25.0122V26.8919H28.6681V25.0224C26.6113 24.8113 25.3377 23.616 24.8473 21.4366L27.2787 20.8032C27.5035 22.1722 28.2492 22.8566 29.516 22.8566C30.1085 22.8566 30.5444 22.7102 30.8236 22.4174C31.1029 22.1245 31.2425 21.7703 31.2425 21.3549C31.2425 20.9258 31.1029 20.6023 30.8236 20.3844C30.5444 20.1596 29.9246 19.877 28.9643 19.5365C28.0994 19.2368 27.4217 18.9405 26.9314 18.6477C26.4478 18.3548 26.0528 17.9462 25.7463 17.4218C25.4467 16.8906 25.2968 16.2742 25.2968 15.5727C25.2968 14.6533 25.5658 13.8258 26.1039 13.0902C26.6487 12.3547 27.5035 11.9052 28.6681 11.7417V10.2911Z" fill="white"/>
</g>
<defs>
<clipPath id="clip0_1_233">
<rect width="34" height="29" fill="white"/>
</clipPath>
</defs>
</svg>
