<svg width="20" height="16" viewBox="0 0 20 16" fill="none" xmlns="http://www.w3.org/2000/svg">
<path fill-rule="evenodd" clip-rule="evenodd" d="M15.3854 12.1992L17.0519 5.85662L14.6165 7.40762C14.1309 7.71725 13.5432 7.8241 12.9797 7.70522C12.4161 7.58634 11.9217 7.25122 11.6025 6.77182L9.99982 4.36392L8.39602 6.77292C8.07667 7.25214 7.58214 7.58704 7.01862 7.70571C6.4551 7.82438 5.86751 7.71735 5.38202 7.40762L2.94882 5.85662L4.61532 12.1992H15.3854ZM3.53842 4.92822C2.69472 4.39032 1.62882 5.16802 1.88292 6.13602L3.55052 12.4786C3.61225 12.7137 3.7501 12.9217 3.94254 13.0702C4.13498 13.2186 4.37117 13.2992 4.61422 13.2992H15.3854C15.6285 13.2992 15.8647 13.2186 16.0571 13.0702C16.2495 12.9217 16.3874 12.7137 16.4491 12.4786L18.1167 6.13602C18.3697 5.16802 17.3049 4.39142 16.4612 4.92822L14.0258 6.47922C13.7831 6.63414 13.4894 6.68774 13.2076 6.62851C12.9259 6.56928 12.6786 6.40194 12.5188 6.16242L10.915 3.75342C10.8146 3.60277 10.6785 3.47924 10.5188 3.39381C10.3592 3.30837 10.1809 3.26367 9.99982 3.26367C9.81874 3.26367 9.64047 3.30837 9.48082 3.39381C9.32117 3.47924 9.18507 3.60277 9.08462 3.75342L7.48082 6.16242C7.32123 6.40212 7.07401 6.56968 6.79224 6.62912C6.51047 6.68856 6.21663 6.63513 5.97382 6.48032L3.53842 4.92822Z" fill="white"/>
<path d="M11.0379 1.33918C11.0382 1.61487 10.929 1.87939 10.7343 2.07454C10.5395 2.26969 10.2752 2.37949 9.99954 2.37978C9.72385 2.38007 9.45933 2.27083 9.26418 2.0761C9.06903 1.88136 8.95923 1.61707 8.95894 1.34138C8.95865 1.06569 9.06788 0.801173 9.26262 0.606022C9.45736 0.410872 9.72165 0.301074 9.99734 0.300782C10.273 0.30049 10.5375 0.409729 10.7327 0.604467C10.9278 0.799204 11.0376 1.06349 11.0379 1.33918ZM19.3495 3.41928C19.3497 3.69497 19.2403 3.95943 19.0455 4.15448C18.8506 4.34953 18.5863 4.45919 18.3106 4.45933C18.0349 4.45948 17.7704 4.3501 17.5754 4.15526C17.3803 3.96042 17.2707 3.69607 17.2705 3.42038C17.2705 3.14469 17.3801 2.88029 17.575 2.68534C17.7699 2.4904 18.0343 2.38088 18.31 2.38088C18.5857 2.38088 18.8501 2.4904 19.0451 2.68534C19.24 2.88029 19.3495 3.14359 19.3495 3.41928ZM2.72744 3.41928C2.72751 3.55579 2.70069 3.69098 2.64852 3.81712C2.59635 3.94327 2.51984 4.0579 2.42336 4.15448C2.32689 4.25106 2.21234 4.32769 2.08625 4.37999C1.96015 4.4323 1.825 4.45926 1.68849 4.45933C1.55198 4.4594 1.41679 4.43259 1.29065 4.38041C1.1645 4.32824 1.04987 4.25173 0.953289 4.15526C0.856711 4.05878 0.780082 3.94423 0.727775 3.81814C0.675469 3.69205 0.64851 3.55689 0.648438 3.42038C0.648437 3.14469 0.757956 2.88029 0.9529 2.68534C1.14784 2.4904 1.41225 2.38088 1.68794 2.38088C1.96363 2.38088 2.22803 2.4904 2.42298 2.68534C2.61792 2.88029 2.72744 3.14359 2.72744 3.41928Z" fill="white"/>
<path fill-rule="evenodd" clip-rule="evenodd" d="M4.77441 14.5988C4.77441 14.453 4.83236 14.3131 4.93551 14.2099C5.03865 14.1068 5.17854 14.0488 5.32441 14.0488H14.9351C15.081 14.0488 15.2209 14.1068 15.324 14.2099C15.4272 14.3131 15.4851 14.453 15.4851 14.5988C15.4851 14.7447 15.4272 14.8846 15.324 14.9877C15.2209 15.0909 15.081 15.1488 14.9351 15.1488H5.32441C5.17854 15.1488 5.03865 15.0909 4.93551 14.9877C4.83236 14.8846 4.77441 14.7447 4.77441 14.5988Z" fill="white"/>
</svg>
