<svg width="17" height="17" viewBox="0 0 17 17" fill="none" xmlns="http://www.w3.org/2000/svg">
<path d="M15.625 0.78125C15.625 0.623778 15.5624 0.472755 15.4511 0.361405C15.3397 0.250056 15.1887 0.1875 15.0313 0.1875C14.8738 0.1875 14.7228 0.250056 14.6114 0.361405C14.5001 0.472755 14.4375 0.623778 14.4375 0.78125V1.375H13.8438C13.6863 1.375 13.5353 1.43756 13.4239 1.54891C13.3126 1.66026 13.25 1.81128 13.25 1.96875C13.25 2.12622 13.3126 2.27724 13.4239 2.38859C13.5353 2.49994 13.6863 2.5625 13.8438 2.5625H14.4375V3.15625C14.4375 3.31372 14.5001 3.46474 14.6114 3.57609C14.7228 3.68744 14.8738 3.75 15.0313 3.75C15.1887 3.75 15.3397 3.68744 15.4511 3.57609C15.5624 3.46474 15.625 3.31372 15.625 3.15625V2.5625H16.2188C16.3762 2.5625 16.5272 2.49994 16.6386 2.38859C16.7499 2.27724 16.8125 2.12622 16.8125 1.96875C16.8125 1.81128 16.7499 1.66026 16.6386 1.54891C16.5272 1.43756 16.3762 1.375 16.2188 1.375H15.625V0.78125ZM4.23925 1.28712C4.35563 0.725438 4.84725 0.1875 5.53125 0.1875C6.21525 0.1875 6.70688 0.725438 6.82444 1.28712C6.97119 2.01483 7.32787 2.68361 7.85044 3.21088C8.37756 3.73387 9.04635 4.09098 9.77419 4.23806C10.3359 4.35444 10.8738 4.84606 10.8738 5.53244C10.8738 6.21644 10.3359 6.70806 9.77419 6.82444C9.04635 6.97152 8.37756 7.32863 7.85044 7.85162C7.32787 8.37889 6.97119 9.04767 6.82444 9.77538C6.70806 10.3359 6.21644 10.875 5.53006 10.875C4.84606 10.875 4.35444 10.3371 4.23806 9.77538C4.0912 9.04711 3.73408 8.37788 3.21088 7.85044C2.68361 7.32787 2.01483 6.97119 1.28713 6.82444C0.726627 6.70806 0.188689 6.21762 0.187502 5.53362C0.186314 4.84725 0.725439 4.35444 1.28713 4.23806C2.01483 4.09131 2.68361 3.73463 3.21088 3.21206C3.73388 2.68495 4.09098 2.01615 4.23806 1.28831M12.0625 5.53125C12.0625 5.32225 12.0388 5.12433 11.9913 4.9375H12.6563C13.4436 4.9375 14.1987 5.25028 14.7555 5.80703C15.3122 6.36378 15.625 7.11889 15.625 7.90625V12.6562C15.625 13.4436 15.3122 14.1987 14.7555 14.7555C14.1987 15.3122 13.4436 15.625 12.6563 15.625H7.90625C7.11889 15.625 6.36378 15.3122 5.80703 14.7555C5.25028 14.1987 4.9375 13.4436 4.9375 12.6562V11.9912C5.32756 12.0869 5.73494 12.0869 6.125 11.9912V12.6562C6.125 13.1287 6.31267 13.5817 6.64672 13.9158C6.98077 14.2498 7.43384 14.4375 7.90625 14.4375H12.6563C13.1287 14.4375 13.5817 14.2498 13.9158 13.9158C14.2498 13.5817 14.4375 13.1287 14.4375 12.6562V7.90625C14.4375 7.43383 14.2498 6.98076 13.9158 6.64672C13.5817 6.31267 13.1287 6.125 12.6563 6.125H11.9913C12.0388 5.93817 12.0625 5.74025 12.0625 5.53125ZM8.5 9.09375C8.5 8.93628 8.56256 8.78525 8.67391 8.6739C8.78526 8.56256 8.93628 8.5 9.09375 8.5H12.0625C12.22 8.5 12.371 8.56256 12.4823 8.6739C12.5937 8.78525 12.6563 8.93628 12.6563 9.09375C12.6563 9.25122 12.5937 9.40225 12.4823 9.5136C12.371 9.62494 12.22 9.6875 12.0625 9.6875H9.09375C8.93628 9.6875 8.78526 9.62494 8.67391 9.5136C8.56256 9.40225 8.5 9.25122 8.5 9.09375ZM9.09375 10.875C8.93628 10.875 8.78526 10.9376 8.67391 11.0489C8.56256 11.1603 8.5 11.3113 8.5 11.4688C8.5 11.6262 8.56256 11.7772 8.67391 11.8886C8.78526 11.9999 8.93628 12.0625 9.09375 12.0625H10.875C11.0325 12.0625 11.1835 11.9999 11.2948 11.8886C11.4062 11.7772 11.4688 11.6262 11.4688 11.4688C11.4688 11.3113 11.4062 11.1603 11.2948 11.0489C11.1835 10.9376 11.0325 10.875 10.875 10.875H9.09375ZM1.96875 13.25C2.12622 13.25 2.27725 13.3126 2.3886 13.4239C2.49995 13.5353 2.5625 13.6863 2.5625 13.8438V14.4375H3.15625C3.31372 14.4375 3.46475 14.5001 3.5761 14.6114C3.68745 14.7228 3.75 14.8738 3.75 15.0312C3.75 15.1887 3.68745 15.3397 3.5761 15.4511C3.46475 15.5624 3.31372 15.625 3.15625 15.625H2.5625V16.2188C2.5625 16.3762 2.49995 16.5272 2.3886 16.6386C2.27725 16.7499 2.12622 16.8125 1.96875 16.8125C1.81128 16.8125 1.66026 16.7499 1.54891 16.6386C1.43756 16.5272 1.375 16.3762 1.375 16.2188V15.625H0.781252C0.62378 15.625 0.472757 15.5624 0.361407 15.4511C0.250058 15.3397 0.187502 15.1887 0.187502 15.0312C0.187502 14.8738 0.250058 14.7228 0.361407 14.6114C0.472757 14.5001 0.62378 14.4375 0.781252 14.4375H1.375V13.8438C1.375 13.6863 1.43756 13.5353 1.54891 13.4239C1.66026 13.3126 1.81128 13.25 1.96875 13.25Z" fill="#A6A6A6"/>
</svg>
