<svg width="21" height="21" viewBox="0 0 21 21" fill="none" xmlns="http://www.w3.org/2000/svg">
<path d="M14.3817 11.0153L11.4107 12.5008C10.5192 12.9466 9.79636 13.6693 9.35059 14.5609L7.86506 17.532C7.65289 17.9563 7.04713 17.9563 6.83496 17.532L5.34942 14.5609C4.90365 13.6693 4.18082 12.9466 3.28928 12.5008L0.318255 11.0153C-0.106085 10.8031 -0.106085 10.1973 0.318255 9.98517L3.28928 8.49964C4.18082 8.05386 4.90365 7.33104 5.34942 6.4395L6.83496 3.46846C7.04712 3.04413 7.65288 3.04413 7.86506 3.46846L9.35059 6.4395C9.79636 7.33104 10.5192 8.05387 11.4107 8.49964L14.3817 9.98517C14.8061 10.1973 14.8061 10.8031 14.3817 11.0153ZM20.8635 17.6293L19.5902 16.9927C19.2081 16.8016 18.8984 16.4919 18.7073 16.1097L18.0707 14.8365C17.9798 14.6547 17.7201 14.6547 17.6292 14.8365L16.9926 16.1097C16.8015 16.4919 16.4918 16.8016 16.1096 16.9927L14.8362 17.6293C14.6543 17.7202 14.6543 17.9799 14.8362 18.0708L16.1096 18.7074C16.4918 18.8985 16.8015 19.2082 16.9926 19.5903L17.6292 20.8635C17.7201 21.0454 17.9798 21.0454 18.0707 20.8635L18.7073 19.5903C18.8984 19.2082 19.2081 18.8985 19.5902 18.7074L20.8635 18.0708C21.0455 17.9799 21.0455 17.7202 20.8635 17.6293ZM20.8635 2.92923L19.5902 2.29257C19.2081 2.1015 18.8984 1.79176 18.7073 1.40964L18.0707 0.136453C17.9798 -0.0454845 17.7201 -0.0454845 17.6292 0.136453L16.9926 1.40964C16.8015 1.79178 16.4918 2.1015 16.1096 2.29257L14.8362 2.92923C14.6543 3.02011 14.6543 3.27975 14.8362 3.37062L16.1096 4.00728C16.4918 4.19835 16.8015 4.50808 16.9926 4.89022L17.6292 6.16341C17.7201 6.34534 17.9798 6.34534 18.0707 6.16341L18.7073 4.89022C18.8984 4.50807 19.2081 4.19835 19.5902 4.00728L20.8635 3.37062C21.0455 3.27975 21.0455 3.02011 20.8635 2.92923Z" fill="url(#paint0_linear_1_4496)"/>
<defs>
<linearGradient id="paint0_linear_1_4496" x1="0" y1="10.5" x2="21" y2="10.5" gradientUnits="userSpaceOnUse">
<stop stop-color="#61A6F2"/>
<stop offset="0.327143" stop-color="#C9649A"/>
<stop offset="0.686748" stop-color="#FF5A5E"/>
<stop offset="1" stop-color="#F28E4C"/>
</linearGradient>
</defs>
</svg>
