<svg width="34" height="27" viewBox="0 0 34 27" fill="none" xmlns="http://www.w3.org/2000/svg">
<g clip-path="url(#clip0_1_241)">
<path d="M21.9029 12.2481C21.9029 15.1062 19.6997 17.4176 17.0205 17.3847C14.3413 17.3518 12.1721 15.0535 12.1925 12.1888C12.2129 9.3242 14.3753 7.04566 17.0137 7.03908C19.6521 7.03249 21.9097 9.35715 21.9029 12.2481ZM14.9125 12.1427H14.9533C14.9533 13.0449 14.9533 13.9537 14.9533 14.8559C14.9533 15.3169 15.1029 15.3893 15.4701 15.1523C16.8845 14.2501 18.3125 13.3545 19.7337 12.4589C20.0601 12.2547 20.1145 12.0901 19.7337 11.8728C18.2717 11.0035 16.8097 10.1342 15.3545 9.23861C14.9669 9.00812 14.8921 9.16615 14.8989 9.55469C14.9193 10.424 14.9125 11.2801 14.9125 12.1427Z" fill="white"/>
<path d="M22.5831 21.5347C20.3459 21.5347 18.1155 21.5347 15.8783 21.5347C15.7362 21.5214 15.5931 21.5463 15.4647 21.6067C15.3363 21.6671 15.2276 21.7607 15.1507 21.8771C15.0553 22.0284 14.9215 22.1533 14.7619 22.24C14.6023 22.3268 14.4225 22.3723 14.2395 22.3723C14.0565 22.3723 13.8766 22.3268 13.717 22.24C13.5575 22.1533 13.4236 22.0284 13.3283 21.8771C13.2394 21.754 13.1182 21.6561 12.9771 21.5936C12.836 21.531 12.6802 21.5062 12.5259 21.5215H4.82828C4.64318 21.5447 4.45577 21.5447 4.27067 21.5215C4.1388 21.5035 4.01947 21.4362 3.93815 21.3341C3.85682 21.2319 3.81999 21.103 3.83551 20.9749C3.8317 20.9111 3.84165 20.8472 3.86472 20.7873C3.8878 20.7274 3.92348 20.6727 3.96952 20.6269C4.01557 20.5811 4.07097 20.545 4.13218 20.521C4.19339 20.4971 4.25909 20.4857 4.32509 20.4876C4.48829 20.4876 4.65147 20.4876 4.82147 20.4876H12.5191C12.6826 20.5032 12.8476 20.4795 12.9994 20.4186C13.1512 20.3577 13.2852 20.2616 13.3895 20.1386C13.4865 20.0081 13.6142 19.9017 13.762 19.8284C13.9097 19.755 14.0734 19.7168 14.2395 19.7168C14.4056 19.7168 14.5692 19.755 14.717 19.8284C14.8648 19.9017 14.9925 20.0081 15.0895 20.1386C15.1856 20.2563 15.3107 20.3487 15.4532 20.4074C15.5958 20.4661 15.7513 20.4891 15.9055 20.4745H29.6891C29.7549 20.4752 29.8198 20.489 29.8799 20.5149C29.94 20.5408 29.994 20.5783 30.0386 20.6252C30.0832 20.6721 30.1174 20.7273 30.1391 20.7874C30.1609 20.8476 30.1697 20.9114 30.1651 20.9749C30.1805 21.104 30.1427 21.2338 30.06 21.3361C29.9773 21.4384 29.8562 21.5051 29.7231 21.5215C29.558 21.538 29.3917 21.538 29.2267 21.5215L22.5831 21.5347Z" fill="white"/>
<path d="M6.75214 4.62323C6.83484 4.62801 6.91563 4.64916 6.98954 4.68541C7.06345 4.72166 7.12888 4.77223 7.18179 4.83397C7.2347 4.8957 7.27399 4.96732 7.29717 5.04434C7.32034 5.12137 7.32694 5.20217 7.31655 5.28177C7.31342 5.35614 7.2952 5.42921 7.26293 5.49677C7.23065 5.56432 7.18493 5.62502 7.12841 5.67547C7.0719 5.72592 7.0057 5.76512 6.93355 5.79078C6.8614 5.81645 6.78473 5.8281 6.70794 5.82507C6.63114 5.82204 6.55573 5.8044 6.48597 5.77314C6.41622 5.74188 6.3535 5.6976 6.30141 5.64287C6.24931 5.58814 6.20883 5.52403 6.18233 5.45416C6.15583 5.38429 6.1438 5.31004 6.14693 5.23567C6.14122 5.15605 6.15277 5.07618 6.1808 5.00113C6.20882 4.92608 6.25273 4.8575 6.30971 4.79984C6.36668 4.74218 6.43547 4.69669 6.51166 4.66628C6.58785 4.63586 6.66976 4.62121 6.75214 4.62323Z" fill="white"/>
<path d="M11.1387 5.20277C11.1387 5.58472 10.9211 5.8613 10.5607 5.8613C10.2003 5.8613 9.97593 5.61764 9.97593 5.20277C9.96642 5.12903 9.97291 5.05419 9.99502 4.98303C10.0171 4.91187 10.0544 4.84595 10.1043 4.78953C10.1542 4.73311 10.2158 4.68744 10.285 4.65541C10.3542 4.62337 10.4296 4.6057 10.5063 4.60352C10.8735 4.61669 11.0843 4.83399 11.1387 5.20277Z" fill="white"/>
<path d="M9.22786 5.26808C9.16666 5.64345 8.96944 5.88053 8.60904 5.85419C8.24864 5.82785 8.05146 5.5776 8.07866 5.19565C8.07263 5.12123 8.08322 5.04643 8.1097 4.97632C8.13618 4.9062 8.17791 4.84243 8.2321 4.78933C8.28629 4.73623 8.35164 4.69502 8.42372 4.66855C8.4958 4.64208 8.57292 4.63096 8.64984 4.63591C9.01024 4.6425 9.17346 4.87955 9.22786 5.26808Z" fill="white"/>
<path d="M27.4987 0.988281H6.50033C3.47337 0.988281 1.01953 3.36467 1.01953 6.29609V20.7049C1.01953 23.6363 3.47337 26.0127 6.50033 26.0127H27.4987C30.5257 26.0127 32.9795 23.6363 32.9795 20.7049V6.29609C32.9795 3.36467 30.5257 0.988281 27.4987 0.988281Z" stroke="white" stroke-width="3" stroke-miterlimit="10"/>
</g>
<defs>
<clipPath id="clip0_1_241">
<rect width="34" height="27" fill="white"/>
</clipPath>
</defs>
</svg>
