<svg width="30" height="30" viewBox="0 0 30 30" fill="none" xmlns="http://www.w3.org/2000/svg">
<g clip-path="url(#clip0_1_228)">
<path d="M2.62961 11.3197L2.5166 7.33324C2.5166 7.33324 2.68991 1.07101 8.43218 1.13129L23.5038 1.24435C23.5038 1.24435 28.8391 1.30462 28.8391 6.4591V22.7364C28.8391 22.7364 28.8919 27.2579 24.506 27.2579H19.6454" stroke="white" stroke-width="3" stroke-miterlimit="10"/>
<path d="M8.13112 18.6445H2.99171C1.33943 18.6445 0 19.984 0 21.6362V26.7757C0 28.4279 1.33943 29.7674 2.99171 29.7674H8.13112C9.7834 29.7674 11.1228 28.4279 11.1228 26.7757V21.6362C11.1228 19.984 9.7834 18.6445 8.13112 18.6445Z" fill="white"/>
<path d="M8.83984 18.9907L14.4615 13.5423H12.2912C12.0623 13.4318 11.8698 13.2581 11.7363 13.0419C11.6028 12.8256 11.5339 12.5756 11.5376 12.3215C11.5376 12.3215 11.4472 11.1761 12.5399 11.1836H17.4457C17.5883 11.1862 17.7289 11.218 17.8587 11.2772C17.9884 11.3364 18.1046 11.4217 18.2 11.5277C18.2954 11.6337 18.368 11.7582 18.4133 11.8935C18.4585 12.0288 18.4754 12.1719 18.463 12.314V17.0992C18.463 17.0992 18.139 18.1392 17.2874 18.1467C17.2874 18.1467 16.1495 18.1467 16.1571 17.1218V15.0495L10.7313 20.5883L8.83984 18.9907Z" fill="white"/>
</g>
<defs>
<clipPath id="clip0_1_228">
<rect width="30" height="29.7664" fill="white"/>
</clipPath>
</defs>
</svg>
